<?xml version="1.0" standalone="no"?>
<!DOCTYPE svg PUBLIC "-//W3C//DTD SVG 20010904//EN"
 "http://www.w3.org/TR/2001/REC-SVG-20010904/DTD/svg10.dtd">
<svg version="1.0" xmlns="http://www.w3.org/2000/svg"
 width="225.000000pt" height="225.000000pt" viewBox="0 0 225.000000 225.000000"
 preserveAspectRatio="xMidYMid meet">
<metadata>
Created by potrace 1.11, written by Peter Selinger 2001-2013
</metadata>
<g transform="translate(0.000000,225.000000) scale(0.100000,-0.100000)"
fill="#000000" stroke="none">
<path d="M1254 2060 c-16 -16 -34 -30 -39 -30 -6 0 -11 -9 -11 -19 0 -22 14
-17 60 23 16 14 37 28 49 32 15 5 17 8 6 15 -23 14 -34 11 -65 -21z"/>
<path d="M1430 2055 c-10 -12 -9 -15 6 -15 11 0 45 -18 77 -40 55 -38 62 -33
20 15 -23 26 -64 55 -79 55 -6 0 -17 -7 -24 -15z"/>
<path d="M1191 1950 c-89 -21 -171 -119 -179 -215 -3 -33 -8 -52 -14 -48 -7 3
-7 1 -2 -8 5 -8 20 -31 33 -51 12 -21 25 -38 27 -38 6 0 -16 53 -28 67 -17 20
-3 117 24 165 55 100 204 147 254 81 8 -11 13 -13 14 -5 0 16 -37 52 -54 52
-8 0 -20 2 -28 4 -7 2 -28 0 -47 -4z"/>
<path d="M1455 1895 c-22 -13 -35 -24 -30 -24 6 0 19 6 29 14 29 22 81 19 111
-7 15 -13 32 -45 40 -73 l15 -50 -6 45 c-15 111 -75 147 -159 95z"/>
<path d="M1151 1803 c-22 -18 -53 -92 -44 -105 2 -5 11 -8 19 -8 16 0 19 -26
4 -35 -16 -10 -11 -23 11 -30 19 -7 20 -8 5 -23 -19 -20 -35 -8 -53 41 -11 31
-12 31 -12 6 -1 -38 34 -79 68 -79 52 0 112 90 110 167 0 28 -2 33 -8 19 -15
-38 -81 -24 -81 17 0 13 5 28 12 35 19 19 -7 15 -31 -5z"/>
<path d="M1490 1810 c8 -5 20 -10 25 -10 6 0 3 5 -5 10 -8 5 -19 10 -25 10 -5
0 -3 -5 5 -10z"/>
<path d="M1418 1763 c-38 -44 -52 -113 -23 -113 17 0 20 -25 5 -35 -16 -10
-12 -23 9 -30 13 -4 17 -12 14 -25 -3 -11 -9 -20 -13 -20 -9 0 -36 31 -43 50
-4 10 -6 7 -6 -7 -1 -13 8 -32 19 -43 62 -62 160 35 159 155 0 40 -2 45 -9 28
-14 -33 -66 -32 -82 2 -8 19 -8 28 2 40 19 22 -12 20 -32 -2z"/>
<path d="M1601 1723 c0 -12 -10 -42 -21 -67 -10 -25 -17 -46 -14 -46 11 0 45
95 41 114 -4 20 -4 20 -6 -1z"/>
<path d="M1487 1536 c-65 -39 -65 -49 -1 -19 34 15 60 31 57 36 -6 10 -13 8
-56 -17z"/>
<path d="M950 1503 c-13 -17 -19 -36 -16 -52 10 -50 26 -208 37 -361 13 -187
22 -224 60 -263 28 -27 34 -29 84 -24 130 13 260 139 399 385 26 46 46 85 44
87 -2 2 -19 -17 -38 -42 -51 -69 -113 -97 -223 -101 -51 -2 -107 1 -132 8 -83
23 -145 96 -145 171 0 30 1 31 18 16 20 -19 127 -67 145 -66 7 0 -6 8 -28 17
-80 34 -122 61 -159 102 -54 60 -62 87 -36 122 26 36 18 37 -10 1z m160 -603
c0 -12 -28 -25 -36 -17 -9 9 6 27 22 27 8 0 14 -5 14 -10z m130 2 c0 -13 -50
-33 -61 -26 -13 8 20 33 44 34 9 0 17 -4 17 -8z"/>
<path d="M1616 1436 c12 -31 -84 -111 -183 -152 -32 -13 -51 -24 -43 -24 24 0
132 54 169 86 l34 29 -6 -30 c-4 -18 3 -8 18 24 14 30 28 57 30 59 2 3 17 -3
32 -13 22 -15 25 -15 15 -3 -18 22 -73 42 -66 24z"/>
<path d="M1243 1247 c30 -6 65 -6 90 0 37 7 30 9 -48 9 -84 1 -87 0 -42 -9z"/>
<path d="M863 773 c-25 -5 -32 -23 -8 -23 20 0 83 -56 90 -81 4 -11 9 -18 12
-16 9 9 -26 64 -51 81 -32 21 -34 40 -3 31 17 -5 19 -4 7 4 -8 6 -17 10 -20 9
-3 0 -15 -3 -27 -5z"/>
<path d="M366 743 c-6 -14 -5 -15 5 -6 7 7 10 15 7 18 -3 3 -9 -2 -12 -12z"/>
<path d="M948 738 c28 -31 46 -108 39 -171 -4 -40 -3 -46 4 -26 l10 27 203 -5
c290 -8 501 13 549 55 25 22 21 38 -13 59 -33 19 -38 34 -15 53 31 26 6 20
-61 -14 -137 -69 -318 -99 -464 -77 -82 13 -210 50 -210 61 0 11 -45 60 -55
60 -4 0 1 -10 13 -22z"/>
<path d="M435 720 c27 -12 43 -12 25 0 -8 5 -22 9 -30 9 -10 0 -8 -3 5 -9z"/>
<path d="M780 710 c0 -5 5 -10 11 -10 5 0 7 5 4 10 -3 6 -8 10 -11 10 -2 0 -4
-4 -4 -10z"/>
<path d="M361 672 c-13 -19 -17 -33 -10 -43 7 -11 9 -10 9 6 0 11 7 31 16 43
8 12 13 22 10 22 -2 0 -14 -13 -25 -28z"/>
<path d="M500 660 c0 -11 4 -20 9 -20 5 0 7 9 4 20 -3 11 -7 20 -9 20 -2 0 -4
-9 -4 -20z"/>
<path d="M859 662 c6 -12 16 -24 22 -28 8 -4 8 -1 0 14 -6 12 -16 24 -22 28
-8 4 -8 1 0 -14z"/>
<path d="M468 643 c7 -3 16 -2 19 1 4 3 -2 6 -13 5 -11 0 -14 -3 -6 -6z"/>
<path d="M961 614 c0 -11 3 -14 6 -6 3 7 2 16 -1 19 -3 4 -6 -2 -5 -13z"/>
<path d="M780 600 c0 -5 5 -10 11 -10 5 0 7 5 4 10 -3 6 -8 10 -11 10 -2 0 -4
-4 -4 -10z"/>
<path d="M595 570 c3 -5 8 -10 11 -10 2 0 4 5 4 10 0 6 -5 10 -11 10 -5 0 -7
-4 -4 -10z"/>
<path d="M805 509 c-16 -35 -21 -39 -31 -25 -14 20 -25 21 -18 2 4 -10 -4 -13
-31 -12 -28 1 -43 9 -66 36 l-30 35 21 -40 c23 -45 25 -71 9 -112 -14 -36 -25
-43 -80 -43 -51 0 -102 30 -154 91 -24 29 -27 30 -22 11 3 -15 1 -22 -6 -19
-15 5 -57 -42 -57 -63 1 -28 34 -57 85 -74 35 -12 111 -21 246 -28 l197 -10
41 26 c22 15 41 31 41 37 0 5 5 7 11 3 6 -3 8 -17 4 -33 -4 -17 -3 -22 3 -16
14 14 26 59 15 52 -6 -4 -8 13 -5 43 4 41 2 50 -12 50 -20 0 -20 -1 -1 43 22
52 18 59 -7 12 -52 -100 -132 -169 -190 -163 -26 2 -34 8 -36 27 -5 34 4 63
31 91 28 31 72 108 65 115 -3 3 -13 -13 -23 -36z"/>
<path d="M475 520 c-3 -5 1 -10 10 -10 9 0 13 5 10 10 -3 6 -8 10 -10 10 -2 0
-7 -4 -10 -10z"/>
<path d="M585 493 c22 -9 45 -24 52 -32 8 -11 12 -12 13 -4 0 16 -37 40 -75
48 -25 5 -23 3 10 -12z"/>
<path d="M925 240 c-16 -11 -25 -20 -19 -20 11 0 64 39 54 40 -3 0 -18 -9 -35
-20z"/>
</g>
</svg>
